<svg width="123" height="130" viewBox="0 0 123 130" fill="none" xmlns="http://www.w3.org/2000/svg">
<path d="M52.001 0C52.3517 8.32982e-05 52.6915 0.123121 52.9609 0.347656L53.1006 0.463867L56.833 3.57422C57.1747 3.8592 57.3721 4.28159 57.3721 4.72656V16.6201C57.3719 17.0177 57.2138 17.3995 56.9326 17.6807L56.7861 17.8281L53.7793 20.834L52.9199 21.6934C51.9751 22.6374 50.36 21.9684 50.3594 20.6328V8.4707L50.3486 8.32324C50.327 8.1776 50.2728 8.0376 50.1904 7.91406L49.5273 6.91992L49.4307 6.7959C49.1849 6.5292 48.8091 6.41297 48.4492 6.50293L46.7129 6.93652C46.6059 6.9633 46.5037 7.0075 46.4111 7.06738L21.752 23.0215C21.502 23.1833 21.3385 23.4471 21.3018 23.7383L21.2939 23.8643V29.8105C21.2943 30.364 21.7432 30.8131 22.2969 30.8135H55.8838C56.7056 30.8136 57.3746 31.4751 57.3838 32.2969L57.3887 32.7939L58.1074 96.6758L58.1123 97.1846C58.1213 98.0192 57.4471 98.7012 56.6123 98.7012H22.2969C21.743 98.7015 21.294 99.1504 21.2939 99.7041V105.633C21.2942 105.979 21.4733 106.301 21.7676 106.484L47.9951 122.786C48.3463 123.004 48.7961 122.985 49.127 122.737L50.71 121.55C50.9624 121.36 51.1112 121.063 51.1113 120.747V111.197C51.1114 110.046 52.3555 109.323 53.3555 109.895L54.1084 110.325L56.3633 111.613L56.6162 111.759C57.0835 112.026 57.372 112.522 57.3721 113.061V123.97C57.3719 124.471 57.1213 124.94 56.7041 125.218L56.4805 125.367L50.7637 129.178L50.6367 129.263C50.3904 129.427 50.1006 129.515 49.8047 129.515H46.6396C46.3554 129.515 46.077 129.433 45.8369 129.281L45.7129 129.203L15.9629 110.339L15.7295 110.191C15.2957 109.916 15.0324 109.437 15.0322 108.924V93.04L15.0244 92.9092C14.985 92.6082 14.8102 92.3384 14.5459 92.1797L0.972656 84.0371L0.728516 83.8906C0.276776 83.6196 0.000130688 83.1303 0 82.6035V45.4072C8.5163e-05 44.8805 0.276906 44.3922 0.728516 44.1211L0.972656 43.9746L14.5459 35.832C14.8479 35.6508 15.0321 35.3238 15.0322 34.9717V19.8643C15.0322 19.3302 15.3168 18.836 15.7783 18.5674L16.0293 18.4219L47.251 0.271484L47.3682 0.203125C47.597 0.0701119 47.8574 8.39979e-05 48.1221 0H52.001ZM74.6416 0C74.9063 5.65359e-05 75.1667 0.0700891 75.3955 0.203125L75.5127 0.271484L106.734 18.4219L106.985 18.5674C107.447 18.836 107.731 19.3301 107.731 19.8643V34.9717C107.732 35.3238 107.916 35.6508 108.218 35.832L121.791 43.9746L122.035 44.1211C122.487 44.3921 122.764 44.8804 122.764 45.4072V82.6035C122.764 83.1303 122.487 83.6196 122.035 83.8906L121.791 84.0371L108.218 92.1797C107.916 92.3611 107.731 92.688 107.731 93.04V108.924C107.731 109.437 107.468 109.916 107.034 110.191L106.801 110.339L77.0508 129.203L76.9268 129.281C76.6867 129.433 76.4082 129.515 76.124 129.515H72.959C72.663 129.515 72.3732 129.427 72.127 129.263L72 129.178L66.2832 125.367L66.0596 125.218C65.6423 124.94 65.3917 124.471 65.3916 123.97V113.061C65.3917 112.522 65.6803 112.026 66.1475 111.759L66.4004 111.613L68.6553 110.325L69.4082 109.895C70.4082 109.323 71.6523 110.046 71.6523 111.197V120.747C71.6525 121.063 71.8013 121.36 72.0537 121.55L73.6367 122.737C73.9675 122.985 74.4174 123.004 74.7686 122.786L100.996 106.484C101.29 106.301 101.47 105.979 101.47 105.633V99.7041C101.47 99.1503 101.021 98.7014 100.467 98.7012H66.1514C65.3167 98.701 64.6424 98.0191 64.6514 97.1846L64.6562 96.6836L65.0625 60.6006C65.0644 60.4343 65.0655 60.2681 65.0674 60.1035C65.0768 59.282 65.7458 58.6213 66.5674 58.6211H78.0615C78.2891 58.621 78.5089 58.5427 78.6855 58.4023L78.7588 58.3389L100.71 37.1221L100.718 37.1016C100.718 37.0866 100.706 37.0743 100.69 37.0742H66.8438C66.009 37.0741 65.3347 36.3922 65.3438 35.5576L65.3496 35.0488L65.375 32.7939L65.3799 32.2969C65.3891 31.4752 66.0582 30.8137 66.8799 30.8135H100.467C101.021 30.8132 101.469 30.3641 101.47 29.8105V23.8643C101.47 23.524 101.297 23.2063 101.012 23.0215L76.3525 7.06738C76.2599 7.00746 76.1578 6.9633 76.0508 6.93652L74.3145 6.50293C73.9031 6.40017 73.4715 6.56723 73.2363 6.91992L72.5732 7.91406C72.4635 8.07876 72.4043 8.27282 72.4043 8.4707V20.6328C72.4036 21.9685 70.7886 22.6377 69.8438 21.6934L68.9844 20.834L65.9775 17.8281L65.8311 17.6807C65.5499 17.3995 65.3918 17.0177 65.3916 16.6201V4.72656C65.3916 4.28169 65.5891 3.8592 65.9307 3.57422L69.6631 0.463867L69.8027 0.347656C70.0722 0.12317 70.412 0.000136791 70.7627 0H74.6416ZM16.5078 43.4531C16.343 43.3072 16.1026 43.2861 15.915 43.4014L7.25098 48.7324C7.1034 48.8235 7.0127 48.9848 7.0127 49.1582V79.584C7.01297 79.763 7.10927 79.9286 7.26465 80.0176L16.7646 85.4453C16.9244 85.5366 17.1223 85.5329 17.2783 85.4355L28.0576 78.6992C28.6934 78.302 29.5249 78.4349 30.0049 79.0107L32.5732 82.0928C33.0979 82.723 33.0192 83.6577 32.3965 84.1914L24.6758 90.8086C24.3237 91.1107 24.537 91.6883 25.001 91.6885H49.8594C50.1354 91.6885 50.3592 91.4644 50.3594 91.1885V66.8848C50.3594 66.6086 50.1355 66.3848 49.8594 66.3848H42.9707C42.6046 66.3847 42.2508 66.2504 41.9766 66.0078L16.5078 43.4531ZM106.849 43.4014C106.661 43.2861 106.421 43.3072 106.256 43.4531L80.7871 66.0078C80.5129 66.2503 80.1591 66.3848 79.793 66.3848H72.9043C72.6283 66.3849 72.4043 66.6087 72.4043 66.8848V91.1885C72.4045 91.4644 72.6284 91.6884 72.9043 91.6885H97.7627C98.2269 91.6885 98.4403 91.1107 98.0879 90.8086L90.3672 84.1914C89.7446 83.6578 89.6659 82.723 90.1904 82.0928L92.7588 79.0107C93.2387 78.4349 94.0703 78.302 94.7061 78.6992L105.485 85.4355C105.641 85.533 105.839 85.5364 105.999 85.4453L115.499 80.0176C115.654 79.9286 115.751 79.763 115.751 79.584V49.1582C115.751 48.9847 115.66 48.8234 115.513 48.7324L106.849 43.4014ZM22.0732 37.0742C22.0582 37.0744 22.0461 37.0865 22.0459 37.1016C22.046 37.1089 22.0485 37.1169 22.0537 37.1221L44.1514 58.4805C44.2445 58.5704 44.3695 58.6211 44.499 58.6211H50.6113C50.887 58.6209 51.1109 58.3967 51.1113 58.1211V37.5742C51.1113 37.2982 50.8873 37.0744 50.6113 37.0742H22.0732Z" fill="#01C38D"/>
</svg>
